<svg xmlns="http://www.w3.org/2000/svg" version="1.1" xmlns:xlink="http://www.w3.org/1999/xlink" viewBox="0 0 200 200" width="200" height="200"><metadata><rdf:RDF xmlns:rdf="http://www.w3.org/1999/02/22-rdf-syntax-ns#" xmlns:dc="http://purl.org/dc/elements/1.1/"><rdf:Description><dc:creator>RealFaviconGenerator</dc:creator><dc:source>https://realfavicongenerator.net</dc:source></rdf:Description></rdf:RDF></metadata><rect width="200" height="200" fill="url('#gradient')"></rect><defs><linearGradient id="gradient" gradientTransform="rotate(12 0.5 0.5)"><stop offset="0%" stop-color="#3c3d3e"></stop><stop offset="100%" stop-color="#85621d"></stop></linearGradient></defs><g><g fill="#c52727" transform="matrix(5.429418472063854,0,0,5.429418472063854,7.1573384753043,138.06194114086972)" stroke="#f71412" stroke-width="0.1"><path d="M9.98 0L9.15-2.66L4.45-2.66L3.63 0L-0.03 0L5.19-14.22L8.41-14.22L13.66 0L9.98 0ZM6.80-10.23L5.27-5.30L8.33-5.30L6.80-10.23ZM17.34-10.57L18.83-7.66L20.36-10.57L23.78-10.57L21.00-5.42L23.92 0L20.48 0L18.82-3.13L17.19 0L13.73 0L16.66-5.42L13.89-10.57L17.34-10.57ZM24.04-4.82L24.03-5.38Q24.03-6.96 24.65-8.20Q25.26-9.43 26.42-10.10Q27.57-10.76 29.12-10.76L29.12-10.76Q31.49-10.76 32.86-9.29Q34.23-7.82 34.23-5.29L34.23-5.29L34.23-5.18Q34.23-2.71 32.86-1.25Q31.48 0.20 29.14 0.20L29.14 0.20Q26.88 0.20 25.52-1.16Q24.15-2.51 24.04-4.82L24.04-4.82ZM27.33-5.77L27.32-5.18Q27.32-3.71 27.78-3.03Q28.24-2.34 29.14-2.34L29.14-2.34Q30.90-2.34 30.94-5.05L30.94-5.05L30.94-5.38Q30.94-8.22 29.12-8.22L29.12-8.22Q27.47-8.22 27.33-5.77L27.33-5.77Z"></path></g></g><style>@media (prefers-color-scheme: light) { :root { filter: none; } }
@media (prefers-color-scheme: dark) { :root { filter: none; } }
</style></svg>